<svg width="101" height="17" viewBox="0 0 101 17" fill="none" xmlns="http://www.w3.org/2000/svg">
<path d="M6.292 16C5.148 16 4.23133 15.7213 3.542 15.164C2.85267 14.6067 2.508 13.6167 2.508 12.194V7.442H0.638V5.088H2.508L2.838 2.162H5.324V5.088H8.272V7.442H5.324V12.216C5.324 12.744 5.434 13.1107 5.654 13.316C5.88867 13.5067 6.28467 13.602 6.842 13.602H8.206V16H6.292ZM10.6898 16V0.159999H13.5058V6.76C13.8724 6.15867 14.3638 5.68933 14.9798 5.352C15.6104 5 16.3291 4.824 17.1358 4.824C18.4851 4.824 19.5264 5.24933 20.2598 6.1C21.0078 6.95067 21.3818 8.19733 21.3818 9.84V16H18.5878V10.104C18.5878 9.16533 18.3971 8.44667 18.0158 7.948C17.6491 7.44933 17.0624 7.2 16.2558 7.2C15.4638 7.2 14.8038 7.47867 14.2758 8.036C13.7624 8.59333 13.5058 9.37067 13.5058 10.368V16H10.6898ZM29.3765 16.264C28.2765 16.264 27.3012 16.0293 26.4505 15.56C25.5999 15.0907 24.9325 14.4307 24.4485 13.58C23.9645 12.7293 23.7225 11.7467 23.7225 10.632C23.7225 9.50267 23.9572 8.498 24.4265 7.618C24.9105 6.738 25.5705 6.056 26.4065 5.572C27.2572 5.07333 28.2545 4.824 29.3985 4.824C30.4692 4.824 31.4152 5.05867 32.2365 5.528C33.0579 5.99733 33.6959 6.64267 34.1505 7.464C34.6199 8.27067 34.8545 9.17267 34.8545 10.17C34.8545 10.3313 34.8472 10.5 34.8325 10.676C34.8325 10.852 34.8252 11.0353 34.8105 11.226H26.5165C26.5752 12.0767 26.8685 12.744 27.3965 13.228C27.9392 13.712 28.5919 13.954 29.3545 13.954C29.9265 13.954 30.4032 13.8293 30.7845 13.58C31.1805 13.316 31.4739 12.9787 31.6645 12.568H34.5245C34.3192 13.2573 33.9745 13.888 33.4905 14.46C33.0212 15.0173 32.4345 15.4573 31.7305 15.78C31.0412 16.1027 30.2565 16.264 29.3765 16.264ZM29.3985 7.112C28.7092 7.112 28.1005 7.31 27.5725 7.706C27.0445 8.08733 26.7072 8.674 26.5605 9.466H31.9945C31.9505 8.74733 31.6865 8.17533 31.2025 7.75C30.7185 7.32467 30.1172 7.112 29.3985 7.112ZM38.9273 16L35.7373 5.088H38.5313L40.4233 12.942L42.6233 5.088H45.7473L47.9473 12.942L49.8613 5.088H52.6553L49.4433 16H46.5173L44.1853 7.838L41.8533 16H38.9273ZM57.6354 16.264C56.6967 16.264 55.9267 16.1173 55.3254 15.824C54.724 15.516 54.2767 15.1127 53.9834 14.614C53.69 14.1153 53.5434 13.5653 53.5434 12.964C53.5434 11.952 53.9394 11.1307 54.7314 10.5C55.5234 9.86933 56.7114 9.554 58.2954 9.554H61.0674V9.29C61.0674 8.542 60.8547 7.992 60.4294 7.64C60.004 7.288 59.476 7.112 58.8454 7.112C58.2734 7.112 57.7747 7.25133 57.3494 7.53C56.924 7.794 56.66 8.19 56.5574 8.718H53.8074C53.8807 7.926 54.1447 7.23667 54.5994 6.65C55.0687 6.06333 55.67 5.616 56.4034 5.308C57.1367 4.98533 57.958 4.824 58.8674 4.824C60.422 4.824 61.6467 5.21267 62.5414 5.99C63.436 6.76733 63.8834 7.86733 63.8834 9.29V16H61.4854L61.2214 14.24C60.8987 14.8267 60.444 15.3107 59.8574 15.692C59.2854 16.0733 58.5447 16.264 57.6354 16.264ZM58.2734 14.064C59.08 14.064 59.7034 13.8 60.1434 13.272C60.598 12.744 60.884 12.0913 61.0014 11.314H58.6034C57.8554 11.314 57.32 11.4533 56.9974 11.732C56.6747 11.996 56.5134 12.326 56.5134 12.722C56.5134 13.1473 56.6747 13.4773 56.9974 13.712C57.32 13.9467 57.7454 14.064 58.2734 14.064ZM69.1964 16L65.1924 5.088H68.1404L70.9124 13.338L73.6844 5.088H76.6324L72.6064 16H69.1964ZM83.1734 16.264C82.0734 16.264 81.0981 16.0293 80.2474 15.56C79.3967 15.0907 78.7294 14.4307 78.2454 13.58C77.7614 12.7293 77.5194 11.7467 77.5194 10.632C77.5194 9.50267 77.7541 8.498 78.2234 7.618C78.7074 6.738 79.3674 6.056 80.2034 5.572C81.0541 5.07333 82.0514 4.824 83.1954 4.824C84.2661 4.824 85.2121 5.05867 86.0334 5.528C86.8547 5.99733 87.4927 6.64267 87.9474 7.464C88.4167 8.27067 88.6514 9.17267 88.6514 10.17C88.6514 10.3313 88.6441 10.5 88.6294 10.676C88.6294 10.852 88.6221 11.0353 88.6074 11.226H80.3134C80.3721 12.0767 80.6654 12.744 81.1934 13.228C81.7361 13.712 82.3887 13.954 83.1514 13.954C83.7234 13.954 84.2001 13.8293 84.5814 13.58C84.9774 13.316 85.2707 12.9787 85.4614 12.568H88.3214C88.1161 13.2573 87.7714 13.888 87.2874 14.46C86.8181 15.0173 86.2314 15.4573 85.5274 15.78C84.8381 16.1027 84.0534 16.264 83.1734 16.264ZM83.1954 7.112C82.5061 7.112 81.8974 7.31 81.3694 7.706C80.8414 8.08733 80.5041 8.674 80.3574 9.466H85.7914C85.7474 8.74733 85.4834 8.17533 84.9994 7.75C84.5154 7.32467 83.9141 7.112 83.1954 7.112ZM95.5298 16.264C94.5618 16.264 93.7112 16.11 92.9778 15.802C92.2445 15.4793 91.6578 15.0393 91.2178 14.482C90.7778 13.9247 90.5138 13.2793 90.4258 12.546H93.2638C93.3518 12.9713 93.5865 13.338 93.9678 13.646C94.3638 13.9393 94.8698 14.086 95.4858 14.086C96.1018 14.086 96.5492 13.9613 96.8278 13.712C97.1212 13.4627 97.2678 13.1767 97.2678 12.854C97.2678 12.3847 97.0625 12.0693 96.6518 11.908C96.2412 11.732 95.6692 11.5633 94.9358 11.402C94.4665 11.2993 93.9898 11.1747 93.5058 11.028C93.0218 10.8813 92.5745 10.698 92.1638 10.478C91.7678 10.2433 91.4452 9.95 91.1958 9.598C90.9465 9.23133 90.8218 8.784 90.8218 8.256C90.8218 7.288 91.2032 6.474 91.9658 5.814C92.7432 5.154 93.8285 4.824 95.2218 4.824C96.5125 4.824 97.5392 5.12467 98.3018 5.726C99.0792 6.32733 99.5412 7.156 99.6878 8.212H97.0258C96.8645 7.40533 96.2558 7.002 95.1998 7.002C94.6718 7.002 94.2612 7.10467 93.9678 7.31C93.6892 7.51533 93.5498 7.772 93.5498 8.08C93.5498 8.40267 93.7625 8.65933 94.1878 8.85C94.6132 9.04067 95.1778 9.21667 95.8818 9.378C96.6445 9.554 97.3412 9.752 97.9718 9.972C98.6172 10.1773 99.1305 10.4927 99.5118 10.918C99.8932 11.3287 100.084 11.9227 100.084 12.7C100.099 13.3747 99.9225 13.9833 99.5558 14.526C99.1892 15.0687 98.6612 15.494 97.9718 15.802C97.2825 16.11 96.4685 16.264 95.5298 16.264Z" fill="white"/>
</svg>
